<?xml version="1.0" standalone="no"?>
<!DOCTYPE svg PUBLIC "-//W3C//DTD SVG 20010904//EN"
 "http://www.w3.org/TR/2001/REC-SVG-20010904/DTD/svg10.dtd">
<svg version="1.0" xmlns="http://www.w3.org/2000/svg"
 width="512.000000pt" height="512.000000pt" viewBox="0 0 512.000000 512.000000"
 preserveAspectRatio="xMidYMid meet">
<metadata>
Created by potrace 1.14, written by Peter Selinger 2001-2017
</metadata>
<g transform="translate(0.000000,512.000000) scale(0.100000,-0.100000)"
fill="#000000" stroke="none">
<path d="M2630 5113 c-145 -23 -300 -96 -416 -195 -134 -115 -212 -214 -456
-579 -240 -358 -362 -509 -513 -636 -253 -212 -535 -309 -920 -316 -109 -2
-126 -5 -175 -30 -125 -62 -180 -221 -124 -356 28 -67 105 -129 179 -145 17
-3 41 -9 55 -12 47 -9 235 -33 325 -40 149 -12 390 -7 530 10 40 5 131 18 150
22 11 2 34 7 50 9 55 10 219 46 280 61 33 9 67 18 75 19 8 2 96 25 195 50 99
25 196 48 215 51 19 3 42 7 50 9 8 3 32 7 54 11 21 3 48 8 60 10 57 12 176 19
321 19 189 -1 257 -7 485 -50 14 -2 149 -36 301 -74 275 -69 474 -113 579
-126 30 -4 63 -9 74 -11 39 -7 225 -17 316 -17 98 0 330 12 340 18 3 1 32 6
65 9 33 4 71 9 85 11 14 3 36 7 50 10 103 19 143 39 192 93 90 100 84 275 -14
372 -54 55 -108 73 -228 76 -229 7 -322 20 -485 67 -230 67 -432 206 -640 442
-115 130 -405 554 -405 592 0 52 49 95 99 87 35 -6 39 -11 137 -159 49 -74 91
-135 94 -135 11 0 78 66 99 97 64 94 70 229 14 336 -45 88 -246 226 -438 302
-171 68 -313 96 -495 99 -74 2 -146 1 -160 -1z"/>
<path d="M2330 2895 c-174 -25 -239 -39 -485 -101 -99 -25 -188 -47 -198 -49
-63 -13 -60 -2 -54 -174 6 -167 8 -184 37 -285 32 -114 81 -159 175 -160 44
-1 71 10 220 85 248 126 363 164 517 168 105 3 218 -18 333 -62 16 -7 110 -52
208 -101 98 -49 195 -91 214 -93 49 -7 118 22 148 61 24 31 57 124 70 196 4
19 9 106 12 192 l5 157 -38 10 c-117 30 -409 103 -432 107 -15 3 -34 7 -42 9
-8 3 -33 7 -55 11 -22 3 -43 8 -46 10 -3 1 -34 6 -70 10 -35 3 -68 9 -73 12
-18 11 -365 8 -446 -3z m1 -60 c16 -9 34 -27 39 -40 13 -33 11 -194 -2 -219
-28 -52 -93 -62 -133 -21 -23 22 -25 31 -25 128 0 90 3 108 20 130 11 14 30
28 43 30 12 2 23 5 25 6 2 0 16 -6 33 -14z m557 -21 c20 -23 22 -35 22 -127 0
-116 -10 -141 -63 -155 -38 -11 -80 9 -96 45 -15 33 -14 192 2 223 27 54 93
61 135 14z"/>
<path d="M1320 2674 c-83 -15 -129 -22 -211 -30 l-67 -7 -12 -91 c-65 -497 89
-887 471 -1192 62 -49 285 -204 294 -204 6 0 213 -128 300 -185 44 -28 107
-76 141 -106 121 -110 184 -138 316 -143 122 -5 218 37 341 150 43 40 267 194
281 194 11 0 309 192 380 244 370 273 548 604 550 1016 0 107 -17 291 -29 311
-3 3 -40 10 -82 15 -43 4 -80 8 -83 9 -3 0 -27 4 -53 9 -27 4 -59 9 -70 12
-12 2 -37 7 -54 10 l-33 5 -1 -113 c0 -62 -2 -120 -3 -128 -2 -8 -6 -35 -10
-60 -3 -25 -8 -61 -12 -80 -9 -51 -50 -167 -73 -203 -79 -128 -257 -188 -400
-135 -31 12 -119 54 -196 94 -187 97 -303 136 -420 140 -149 5 -249 -25 -485
-148 -176 -92 -222 -107 -307 -104 -78 3 -144 28 -209 81 -53 44 -78 84 -110
177 -20 59 -56 240 -52 267 0 3 0 52 -1 108 -1 115 9 107 -101 87z"/>
<path d="M1310 1218 c-41 -160 15 -307 180 -476 99 -102 108 -110 300 -261
151 -119 189 -154 191 -174 6 -62 -30 -107 -85 -107 -24 0 -45 11 -77 38 -24
21 -96 78 -159 127 -63 49 -117 92 -120 95 -3 3 -21 18 -40 33 -126 101 -247
243 -309 360 l-29 56 -44 -31 c-129 -91 -214 -210 -263 -368 -13 -41 -19 -104
-22 -252 l-5 -197 30 -31 30 -30 1671 0 1670 0 28 24 28 24 2 174 c1 117 -3
197 -13 241 -35 167 -121 302 -257 403 l-59 44 -31 -60 c-78 -145 -179 -255
-397 -428 -80 -64 -178 -142 -217 -173 -66 -52 -76 -57 -102 -49 -42 12 -49
17 -66 50 -24 46 -5 79 87 151 44 35 97 78 117 94 21 17 55 44 77 60 118 92
258 231 308 306 88 133 111 267 66 384 l-10 26 -82 -64 c-109 -84 -198 -143
-403 -267 -179 -108 -284 -181 -325 -225 -64 -69 -214 -147 -309 -162 -206
-31 -388 26 -539 169 -40 38 -153 118 -247 175 -11 7 -63 38 -115 69 -135 82
-262 167 -357 241 -45 34 -83 63 -85 63 -3 0 -10 -24 -18 -52z"/>
</g>
</svg>
